<svg width="208" height="35" viewBox="0 0 208 35" fill="none" xmlns="http://www.w3.org/2000/svg">
<g id="Group">
<path id="Vector" fill-rule="evenodd" clip-rule="evenodd" d="M17.1298 31.2528C9.89114 31.2528 3.71249 24.6888 3.71249 17.5292C3.71249 10.3961 9.76182 3.70169 17.0778 3.70169C21.887 3.70169 25.3499 6.02782 28.1684 9.67227H31.7098C30.6498 7.75943 29.5125 6.0024 27.7805 4.63213C24.8072 2.22865 20.9552 0.807556 17.1298 0.807556C7.95243 0.807556 0.481689 8.38047 0.481689 17.5038C0.481689 26.6525 8.05633 34.148 17.1817 34.148C20.9044 34.148 24.5497 32.7789 27.471 30.4782C29.3069 29.0051 30.599 27.0923 31.8402 25.1275H28.2989C25.5058 28.772 21.9389 31.2528 17.1298 31.2528ZM53.8391 13.8074C51.6163 10.9387 48.5911 9.12969 44.843 9.12969C38.1217 9.12969 32.5896 14.5842 32.5896 21.304C32.5896 28.0227 38.1482 33.5281 44.843 33.5281C48.747 33.5281 51.4605 31.8993 53.8391 28.9013V32.9844H56.7604V9.69768H53.8391V13.8074ZM44.6883 30.8395C39.5431 30.8395 35.4844 26.3685 35.4844 21.3294C35.4844 16.3147 39.5177 11.8183 44.6883 11.8183C49.8324 11.8183 53.8391 16.3158 53.8391 21.3294C53.8391 26.3685 49.8059 30.8395 44.6883 30.8395ZM60.3018 32.9844H63.4309V1.47832H60.3018V32.9844ZM75.2444 29.288L67.3337 9.69768H64.2312L73.7191 32.9844H76.8725L86.335 9.69768H83.2844L75.2444 29.288ZM87.6271 32.9844H90.7551V9.69768H87.6271V32.9844ZM87.6271 6.69968H90.7551V1.47832H87.6271V6.69968ZM104.224 9.12858C101.277 9.12858 99.1831 10.6801 97.2444 12.7476V9.69768H94.3485V32.9844H97.4245V18.7945C97.3991 15.0472 100.501 11.8172 104.275 11.8172C109.005 11.8172 111.383 15.9269 111.383 20.1658V32.9855H114.278V20.1658C114.279 14.1179 110.739 9.12858 104.224 9.12858ZM143.311 1.47832L129.093 19.5448V1.47832H126.017V32.9844H129.093V24.3263L133.126 19.3127L143.389 32.9844H147.294L135.09 16.8308L147.294 1.47832H143.311ZM148.43 32.9844H151.482V1.47832H148.43V32.9844ZM176.738 15.5644C174.618 11.6094 170.378 9.12858 165.905 9.12858C159.236 9.12858 153.599 14.6859 153.599 21.3538C153.599 28.0725 159.287 33.527 165.959 33.527C169.137 33.527 172.267 32.2606 174.566 30.0638C175.963 28.7454 176.79 27.0912 177.538 25.3596H174.256C172.601 28.5907 169.679 30.8384 165.904 30.8384C163.605 30.8384 161.355 29.9079 159.65 28.331C157.89 26.7298 157.115 24.7639 156.778 22.4389H178.263C178.264 20.01 177.927 17.6839 176.738 15.5644ZM156.883 19.7514C157.816 15.3843 161.252 11.8172 165.959 11.8172C169.914 11.8172 174.154 14.2472 175.084 19.7514H156.883ZM180.539 32.9844H183.614V9.69768H180.539V32.9844ZM180.539 6.80356H183.614V1.47832H180.539V6.80356ZM197.136 9.12858C194.135 9.12858 192.042 10.6801 190.077 12.7476V9.69768H187.13V32.9844H190.232V18.7945C190.207 15.0218 193.387 11.8172 197.186 11.8172C201.892 11.8172 204.375 15.9269 204.375 20.1658V32.9855H207.27V20.1658C207.27 14.1179 203.675 9.12858 197.136 9.12858Z" fill="white"/>
</g>
</svg>
