<svg width="167" height="34" viewBox="0 0 167 34" fill="none" xmlns="http://www.w3.org/2000/svg">
<g id="Group">
<path id="Vector" fill-rule="evenodd" clip-rule="evenodd" d="M150.179 1.46306H166.482V4.06017C166.008 3.90121 165.512 3.81926 165.013 3.81747H155.642V15.9532H164.758C165.413 15.9532 165.996 15.8813 166.481 15.7589V18.3446C166.068 18.2479 165.499 18.1987 164.794 18.1987H155.642V30.7473H164.733C165.232 30.7473 165.826 30.6747 166.481 30.5167V33.3081H150.203C150.333 32.8172 150.399 32.3114 150.398 31.8035V3.00396C150.398 2.37337 150.325 1.85167 150.179 1.46306ZM146.405 9.7277L141.695 9.69211C141.464 7.04589 139.947 4.48437 136.609 4.01249C129.459 3.36908 127.444 11.2202 127.626 16.961C127.809 22.4948 128.694 31.0021 136.075 31.0021C139.171 31.0021 142.144 27.8221 142.047 25.1403L146.405 25.1047C146.089 30.6384 139.741 33.8419 136.718 33.9515C126.389 34.3038 122.066 27.4221 121.848 17.603C121.654 8.70921 125.296 0.807556 135.504 0.807556C144.244 0.929262 145.931 6.09929 146.405 9.7277ZM72.9408 29.6911L76.0611 27.0819C77.687 29.7644 79.0225 30.9893 82.2517 30.9893C85.5286 30.9893 88.285 28.9993 88.285 25.4805C88.285 23.7446 87.5802 22.3247 86.1849 21.2571C85.5528 20.7588 83.951 19.8976 81.4259 18.6962C77.6507 16.8884 73.9731 14.5333 73.9731 9.80101C73.9731 3.82957 79.0467 1.19616 84.3995 1.00115C87.5681 0.880153 91.5014 2.62888 93.091 4.59397L89.9231 7.03308C89.3581 5.97892 88.5181 5.0974 87.4923 4.48212C86.4665 3.86683 85.2932 3.54074 84.0969 3.53847C80.0541 3.53847 76.8498 8.2231 80.2 11.4515C81.0493 12.2764 82.7863 13.2956 85.4324 14.5091C89.6561 16.4877 93.2612 18.8535 93.2612 24.0848C93.2612 25.8926 92.7878 27.5794 91.853 29.121C89.9722 32.2277 86.8278 33.7814 82.4339 33.7814C77.3838 33.7814 76.3892 32.6284 72.9408 29.6911ZM28.4893 1.46306H44.7782V4.06017C44.3051 3.90127 43.8094 3.81933 43.3103 3.81747H33.9396V15.9532H43.0554C43.7111 15.9532 44.2941 15.8813 44.7789 15.7589V18.3446C44.366 18.2479 43.7958 18.1987 43.1046 18.1987H33.9396V30.7473H43.0312C43.5289 30.7473 44.124 30.6747 44.7789 30.5167V33.3081H28.5143C28.6332 32.8154 28.6941 32.3104 28.6958 31.8035V3.00396C28.6958 2.37337 28.6225 1.85167 28.4893 1.46306ZM0 1.46306H5.92368V1.75487C5.92368 2.02177 6.0084 2.37337 6.15434 2.82247L14.5049 27.9559L23.0754 2.71286C23.2085 2.28867 23.2818 1.87587 23.2818 1.46306H26.1586C25.8674 1.97266 25.6489 2.42248 25.515 2.82247L15.7308 32.0099C15.6339 32.2889 15.5492 32.7259 15.4766 33.3088H10.6208C10.5474 32.8676 10.4379 32.4332 10.2933 32.0099L0.704065 3.05307C0.482555 2.51903 0.251627 1.98895 0.0113903 1.46306H0ZM62.9145 18.0656C66.7986 17.3005 69.7729 14.3276 69.7729 10.08C69.7729 4.50857 65.1114 1.46235 59.8918 1.46235H50.3509C50.4841 1.94846 50.5574 2.45806 50.5574 2.99186V31.7779C50.5574 32.3971 50.4841 32.9188 50.3509 33.3074H56.0319C55.8929 32.8095 55.8235 32.2948 55.8254 31.7779V18.5511L57.6457 18.7454L67.1631 33.3074H72.8803L62.9145 18.0656ZM61.9314 15.6386C60.8998 16.366 59.6611 16.7297 58.2409 16.7297H55.8133V3.7826H57.986C59.8441 3.7826 61.2878 4.24309 62.32 5.16478C63.7282 6.44021 64.4443 8.16331 64.4443 10.3234C64.4443 12.6536 63.6064 14.4258 61.9314 15.6394M120.901 31.9857L110.293 2.51927C110.175 2.17858 110.105 1.82305 110.086 1.46306H105.497C105.497 1.83957 105.436 2.23956 105.29 2.64027L95.0096 31.9857C94.875 32.4092 94.6572 32.8469 94.366 33.3081H97.3275C97.3161 32.8227 97.3766 32.3736 97.5105 31.9857L100.556 23.3318H112.27L115.281 31.9864C115.439 32.4583 115.511 32.8953 115.511 33.3081H121.654C121.301 32.8106 121.047 32.3615 120.901 31.9857ZM101.358 20.9894L106.31 6.60889L111.397 20.9894H101.358Z" fill="white"/>
</g>
</svg>
